<svg width="28" height="29" viewBox="0 0 28 29" fill="none" xmlns="http://www.w3.org/2000/svg">
<path d="M15.4062 20.4579H9.625V9.20789H14.9375C15.5639 9.20792 16.1771 9.38723 16.7048 9.72463C17.2325 10.062 17.6526 10.5434 17.9155 11.1119C18.1784 11.6804 18.2731 12.3123 18.1884 12.9329C18.1037 13.5535 17.8431 14.1369 17.4375 14.6141C17.9673 15.0379 18.3528 15.6154 18.5408 16.2672C18.7289 16.9191 18.7102 17.6132 18.4875 18.254C18.2647 18.8948 17.8488 19.4508 17.297 19.8455C16.7452 20.2402 16.0847 20.4541 15.4062 20.4579ZM11.5 18.5829H15.3937C15.5784 18.5829 15.7613 18.5465 15.9319 18.4758C16.1025 18.4052 16.2575 18.3016 16.3881 18.171C16.5187 18.0404 16.6223 17.8854 16.693 17.7148C16.7636 17.5442 16.8 17.3613 16.8 17.1766C16.8 16.992 16.7636 16.8091 16.693 16.6385C16.6223 16.4679 16.5187 16.3128 16.3881 16.1823C16.2575 16.0517 16.1025 15.9481 15.9319 15.8774C15.7613 15.8068 15.5784 15.7704 15.3937 15.7704H11.5V18.5829ZM11.5 13.8954H14.9375C15.1222 13.8954 15.305 13.859 15.4756 13.7883C15.6463 13.7177 15.8013 13.6141 15.9319 13.4835C16.0625 13.3529 16.166 13.1979 16.2367 13.0273C16.3074 12.8567 16.3438 12.6738 16.3438 12.4891C16.3438 12.3045 16.3074 12.1216 16.2367 11.951C16.166 11.7804 16.0625 11.6253 15.9319 11.4948C15.8013 11.3642 15.6463 11.2606 15.4756 11.1899C15.305 11.1193 15.1222 11.0829 14.9375 11.0829H11.5V13.8954Z" fill="#333333"/>
</svg>
