<svg width="28" height="29" viewBox="0 0 28 29" fill="none" xmlns="http://www.w3.org/2000/svg">
<path d="M22.3988 15.1904L17.4081 10.1991C17.1736 9.96476 16.8556 9.8331 16.5241 9.8331C16.1925 9.8331 15.8745 9.96476 15.64 10.1991L12.2912 13.5479L9.625 6.08289H8.375L5.25 14.8329H6.5L7.12438 12.9579H10.8744L11.3763 14.4629L6.86625 18.9729C6.75012 19.089 6.658 19.2268 6.59515 19.3785C6.5323 19.5302 6.49995 19.6928 6.49995 19.8569C6.49995 20.0211 6.5323 20.1837 6.59515 20.3354C6.658 20.4871 6.75012 20.6249 6.86625 20.741L9.7075 23.5829H15.7013L22.3988 16.8848C22.5101 16.7735 22.5984 16.6414 22.6587 16.496C22.719 16.3505 22.75 16.1947 22.75 16.0373C22.75 15.8798 22.719 15.724 22.6587 15.5786C22.5984 15.4331 22.5101 15.301 22.3988 15.1898V15.1904ZM7.54063 11.7079L8.9975 7.33289L10.4575 11.7079H7.54063ZM15.1844 22.3329H10.225L7.75 19.8566L11.695 15.9123L16.65 20.8666L15.1844 22.3329ZM17.5344 19.9829L12.5794 15.0285L16.5244 11.0829L21.4788 16.0373L17.5344 19.9829Z" fill="#333333"/>
</svg>
