<svg width="28" height="29" viewBox="0 0 28 29" fill="none" xmlns="http://www.w3.org/2000/svg">
<path d="M21.5 14.2079H15.2225C14.945 14.1333 14.6662 14.0635 14.3863 13.9985C12.6312 13.5835 11.6388 13.2798 11.6388 11.8592C11.6245 11.6139 11.6608 11.3684 11.7454 11.1377C11.83 10.9071 11.9612 10.6964 12.1306 10.5185C12.6615 10.082 13.3264 9.84141 14.0137 9.83728C15.7825 9.79353 16.5981 10.3935 17.265 11.306L18.2744 10.5685C17.8019 9.89 17.1578 9.34906 16.4078 9.00097C15.6578 8.65288 14.8288 8.51012 14.0056 8.58728C12.9944 8.59373 12.0189 8.96199 11.2556 9.6254C10.9663 9.91884 10.7402 10.2684 10.5913 10.6526C10.4423 11.0368 10.3736 11.4474 10.3894 11.8592C10.362 12.3097 10.4466 12.76 10.6357 13.1699C10.8248 13.5797 11.1125 13.9364 11.4731 14.2079H6.5V15.4579H15.0325C16.2619 15.8142 16.9969 16.2779 17.0156 17.5567C17.0359 17.8298 16.9985 18.1042 16.9056 18.3619C16.8128 18.6196 16.6667 18.8548 16.4769 19.0523C15.8155 19.5736 14.9938 19.8495 14.1519 19.8329C13.5234 19.8147 12.9074 19.6538 12.3503 19.3624C11.7932 19.0711 11.3097 18.6568 10.9362 18.151L9.97812 18.9535C10.4636 19.6005 11.0899 20.1284 11.8097 20.4974C12.5295 20.8663 13.3238 21.0665 14.1325 21.0829H14.195C15.3492 21.0962 16.4695 20.6925 17.35 19.946C17.6625 19.6309 17.9054 19.2538 18.0632 18.8391C18.2209 18.4243 18.2898 17.981 18.2656 17.5379C18.289 16.7799 18.0332 16.0398 17.5469 15.4579H21.5V14.2079Z" fill="#333333"/>
</svg>
