<svg width="28" height="29" viewBox="0 0 28 29" fill="none" xmlns="http://www.w3.org/2000/svg">
<path d="M14 18.5829H22.75V19.8329H14V18.5829ZM14 9.83289H22.75V11.0829H14V9.83289ZM9 12.3329V7.33289H7.75V7.95789H6.5V9.20789H7.75V12.3329H6.5V13.5829H10.25V12.3329H9ZM10.25 22.3329H6.5V19.8329C6.5 19.5014 6.6317 19.1834 6.86612 18.949C7.10054 18.7146 7.41848 18.5829 7.75 18.5829H9V17.3329H6.5V16.0829H9C9.33152 16.0829 9.64946 16.2146 9.88388 16.449C10.1183 16.6834 10.25 17.0014 10.25 17.3329V18.5829C10.25 18.9144 10.1183 19.2323 9.88388 19.4668C9.64946 19.7012 9.33152 19.8329 9 19.8329H7.75V21.0829H10.25V22.3329Z" fill="#333333"/>
</svg>
