<svg width="28" height="29" viewBox="0 0 28 29" fill="none" xmlns="http://www.w3.org/2000/svg">
<path d="M15.875 13.5829C16.2458 13.5829 16.6084 13.4729 16.9167 13.2669C17.225 13.0609 17.4654 12.768 17.6073 12.4254C17.7492 12.0828 17.7863 11.7058 17.714 11.3421C17.6416 10.9784 17.463 10.6443 17.2008 10.3821C16.9386 10.1198 16.6045 9.94126 16.2408 9.86891C15.8771 9.79657 15.5001 9.8337 15.1575 9.97561C14.8149 10.1175 14.522 10.3578 14.316 10.6662C14.11 10.9745 14 11.337 14 11.7079C14 12.2052 14.1975 12.6821 14.5492 13.0337C14.9008 13.3853 15.3777 13.5829 15.875 13.5829ZM15.875 11.0829C15.9986 11.0829 16.1195 11.1195 16.2222 11.1882C16.325 11.2569 16.4051 11.3545 16.4524 11.4687C16.4997 11.5829 16.5121 11.7086 16.488 11.8298C16.4639 11.9511 16.4044 12.0624 16.3169 12.1498C16.2295 12.2372 16.1182 12.2968 15.9969 12.3209C15.8757 12.345 15.75 12.3326 15.6358 12.2853C15.5216 12.238 15.424 12.1579 15.3553 12.0551C15.2867 11.9523 15.25 11.8315 15.25 11.7079C15.25 11.5421 15.3158 11.3832 15.4331 11.2659C15.5503 11.1487 15.7092 11.0829 15.875 11.0829Z" fill="#333333"/>
<path d="M20.25 7.33289H7.75C7.41848 7.33289 7.10054 7.46458 6.86612 7.699C6.6317 7.93342 6.5 8.25137 6.5 8.58289V21.0829C6.5 21.4144 6.6317 21.7323 6.86612 21.9668C7.10054 22.2012 7.41848 22.3329 7.75 22.3329H20.25C20.5815 22.3329 20.8995 22.2012 21.1339 21.9668C21.3683 21.7323 21.5 21.4144 21.5 21.0829V8.58289C21.5 8.25137 21.3683 7.93342 21.1339 7.699C20.8995 7.46458 20.5815 7.33289 20.25 7.33289ZM20.25 21.0829H7.75V17.3329L10.875 14.2079L14.3688 17.7016C14.603 17.9344 14.9198 18.0651 15.25 18.0651C15.5802 18.0651 15.897 17.9344 16.1313 17.7016L17.125 16.7079L20.25 19.8329V21.0829ZM20.25 18.0641L18.0063 15.8204C17.772 15.5876 17.4552 15.4569 17.125 15.4569C16.7948 15.4569 16.478 15.5876 16.2437 15.8204L15.25 16.8141L11.7562 13.3204C11.522 13.0876 11.2052 12.9569 10.875 12.9569C10.5448 12.9569 10.228 13.0876 9.99375 13.3204L7.75 15.5641V8.58289H20.25V18.0641Z" fill="#333333"/>
</svg>
