<svg width="28" height="29" viewBox="0 0 28 29" fill="none" xmlns="http://www.w3.org/2000/svg">
<path d="M11.5 14.2079H7.81875C7.93491 13.4343 8.21112 12.6935 8.62974 12.0328C9.04837 11.372 9.6002 10.8058 10.25 10.3704L11.3688 9.62039L10.6812 8.58289L9.5625 9.33289C8.6208 9.96043 7.84857 10.8107 7.31433 11.8083C6.7801 12.8059 6.50038 13.92 6.5 15.0516V19.2079C6.5 19.5394 6.6317 19.8573 6.86612 20.0918C7.10054 20.3262 7.41848 20.4579 7.75 20.4579H11.5C11.8315 20.4579 12.1495 20.3262 12.3839 20.0918C12.6183 19.8573 12.75 19.5394 12.75 19.2079V15.4579C12.75 15.1264 12.6183 14.8084 12.3839 14.574C12.1495 14.3396 11.8315 14.2079 11.5 14.2079ZM20.25 14.2079H16.5688C16.6849 13.4343 16.9611 12.6935 17.3797 12.0328C17.7984 11.372 18.3502 10.8058 19 10.3704L20.1188 9.62039L19.4375 8.58289L18.3125 9.33289C17.3708 9.96043 16.5986 10.8107 16.0643 11.8083C15.5301 12.8059 15.2504 13.92 15.25 15.0516V19.2079C15.25 19.5394 15.3817 19.8573 15.6161 20.0918C15.8505 20.3262 16.1685 20.4579 16.5 20.4579H20.25C20.5815 20.4579 20.8995 20.3262 21.1339 20.0918C21.3683 19.8573 21.5 19.5394 21.5 19.2079V15.4579C21.5 15.1264 21.3683 14.8084 21.1339 14.574C20.8995 14.3396 20.5815 14.2079 20.25 14.2079Z" fill="#333333"/>
</svg>
