<svg width="28" height="29" viewBox="0 0 28 29" fill="none" xmlns="http://www.w3.org/2000/svg">
<path d="M11.5 11.0829H19.1156L16.8737 8.84164L17.75 7.95789L21.5 11.7079L17.75 15.4579L16.8737 14.5735L19.1137 12.3329H11.5C10.5054 12.3329 9.55161 12.728 8.84835 13.4312C8.14509 14.1345 7.75 15.0883 7.75 16.0829C7.75 17.0774 8.14509 18.0313 8.84835 18.7345C9.55161 19.4378 10.5054 19.8329 11.5 19.8329H16.5V21.0829H11.5C10.1739 21.0829 8.90215 20.5561 7.96447 19.6184C7.02678 18.6807 6.5 17.409 6.5 16.0829C6.5 14.7568 7.02678 13.485 7.96447 12.5474C8.90215 11.6097 10.1739 11.0829 11.5 11.0829Z" fill="#333333"/>
</svg>
