<svg width="28" height="29" viewBox="0 0 28 29" fill="none" xmlns="http://www.w3.org/2000/svg">
<path d="M8.375 12.3329C9.41053 12.3329 10.25 11.4934 10.25 10.4579C10.25 9.42235 9.41053 8.58289 8.375 8.58289C7.33947 8.58289 6.5 9.42235 6.5 10.4579C6.5 11.4934 7.33947 12.3329 8.375 12.3329Z" fill="#333333"/>
<path d="M8.375 21.0829C9.41053 21.0829 10.25 20.2434 10.25 19.2079C10.25 18.1724 9.41053 17.3329 8.375 17.3329C7.33947 17.3329 6.5 18.1724 6.5 19.2079C6.5 20.2434 7.33947 21.0829 8.375 21.0829Z" fill="#333333"/>
<path d="M14 18.5829H22.75V19.8329H14V18.5829ZM14 9.83289H22.75V11.0829H14V9.83289Z" fill="#333333"/>
</svg>
