<svg width="28" height="29" viewBox="0 0 28 29" fill="none" xmlns="http://www.w3.org/2000/svg">
<path d="M6.5 21.0829H21.5V22.3329H6.5V21.0829ZM14 19.2079C12.8397 19.2079 11.7269 18.7469 10.9064 17.9265C10.0859 17.106 9.625 15.9932 9.625 14.8329V7.95789H10.875V14.8329C10.875 15.6617 11.2042 16.4565 11.7903 17.0426C12.3763 17.6286 13.1712 17.9579 14 17.9579C14.8288 17.9579 15.6237 17.6286 16.2097 17.0426C16.7958 16.4565 17.125 15.6617 17.125 14.8329V7.95789H18.375V14.8329C18.375 15.9932 17.9141 17.106 17.0936 17.9265C16.2731 18.7469 15.1603 19.2079 14 19.2079Z" fill="#333333"/>
</svg>
