<svg width="28" height="29" viewBox="0 0 28 29" fill="none" xmlns="http://www.w3.org/2000/svg">
<path d="M16.5 11.0829H8.88438L11.1263 8.84164L10.25 7.95789L6.5 11.7079L10.25 15.4579L11.1263 14.5735L8.88625 12.3329H16.5C17.4946 12.3329 18.4484 12.728 19.1517 13.4312C19.8549 14.1345 20.25 15.0883 20.25 16.0829C20.25 17.0774 19.8549 18.0313 19.1517 18.7345C18.4484 19.4378 17.4946 19.8329 16.5 19.8329H11.5V21.0829H16.5C17.8261 21.0829 19.0979 20.5561 20.0355 19.6184C20.9732 18.6807 21.5 17.409 21.5 16.0829C21.5 14.7568 20.9732 13.485 20.0355 12.5474C19.0979 11.6097 17.8261 11.0829 16.5 11.0829Z" fill="#333333"/>
</svg>
